<svg width="19" height="19" viewBox="0 0 19 19" fill="none" xmlns="http://www.w3.org/2000/svg">
<path fill-rule="evenodd" clip-rule="evenodd" d="M10.5408 10.4923C9.26691 11.7662 7.20148 11.7662 5.92756 10.4923C4.65364 9.21836 4.65364 7.15293 5.92756 5.87902C7.20148 4.6051 9.26691 4.6051 10.5408 5.87902C11.8147 7.15293 11.8147 9.21836 10.5408 10.4923ZM10.9326 11.7226C9.18869 13.0566 6.68378 12.9261 5.08879 11.3311C3.35163 9.59389 3.35163 6.7774 5.08879 5.04024C6.82595 3.30308 9.64244 3.30308 11.3796 5.04024C12.9745 6.63517 13.1051 9.13992 11.7714 10.8838L14.9445 14.057L14.1057 14.8957L10.9326 11.7226Z" fill="white"/>
</svg>
