<svg width="25" height="20" fill="none" xmlns="http://www.w3.org/2000/svg"><path d="M.974 0a.768.768 0 0 0-.372.09.981.981 0 0 0-.316.27 1.32 1.32 0 0 0-.212.408 1.582 1.582 0 0 0 0 .965c.05.152.122.291.212.407.09.117.198.208.316.27a.768.768 0 0 0 .372.09h23.052a.768.768 0 0 0 .372-.09.981.981 0 0 0 .316-.27 1.32 1.32 0 0 0 .212-.407 1.583 1.583 0 0 0 0-.965 1.32 1.32 0 0 0-.212-.408.981.981 0 0 0-.316-.27.769.769 0 0 0-.372-.09H.974Zm0 8.75a.768.768 0 0 0-.372.09.982.982 0 0 0-.316.27 1.32 1.32 0 0 0-.212.408 1.582 1.582 0 0 0 0 .964c.05.153.122.292.212.408.09.117.198.208.316.27a.77.77 0 0 0 .372.09h23.052a.77.77 0 0 0 .372-.09.982.982 0 0 0 .316-.27 1.32 1.32 0 0 0 .212-.408 1.583 1.583 0 0 0 0-.964 1.32 1.32 0 0 0-.212-.408.981.981 0 0 0-.316-.27.768.768 0 0 0-.372-.09H.974Zm0 8.75a.77.77 0 0 0-.372.09.982.982 0 0 0-.316.27 1.32 1.32 0 0 0-.212.407 1.582 1.582 0 0 0 0 .965c.05.153.122.292.212.408a.98.98 0 0 0 .316.27.769.769 0 0 0 .372.09h23.052a.769.769 0 0 0 .372-.09.98.98 0 0 0 .316-.27 1.32 1.32 0 0 0 .212-.408 1.584 1.584 0 0 0 0-.965 1.32 1.32 0 0 0-.212-.407.982.982 0 0 0-.316-.27.77.77 0 0 0-.372-.09H.974Z" fill="#fff"/></svg>