<svg width="31" height="35" viewBox="0 0 31 35" fill="none" xmlns="http://www.w3.org/2000/svg">
<g filter="url('#filter0_dd_1_75')">
<path fill-rule="evenodd" clip-rule="evenodd" d="M7.18662 12.5L14.7628 4.92389L15.7056 5.8667L8.12943 13.4428L7.18662 12.5Z" fill="white"></path>
<path fill-rule="evenodd" clip-rule="evenodd" d="M9.70067 15.0141L17.2768 7.43793L18.2196 8.38074L10.6435 15.9569L9.70067 15.0141Z" fill="white"></path>
<path fill-rule="evenodd" clip-rule="evenodd" d="M15.0433 20.3567L22.6195 12.7806L23.5623 13.7234L15.9861 21.2995L15.0433 20.3567Z" fill="white"></path>
<path fill-rule="evenodd" clip-rule="evenodd" d="M17.5574 22.8708L25.1335 15.2946L26.0763 16.2374L18.5002 23.8136L17.5574 22.8708Z" fill="white"></path>
<path fill-rule="evenodd" clip-rule="evenodd" d="M17.5574 22.8709C14.9423 25.486 10.7118 25.4954 8.10831 22.8919C5.50482 20.2884 5.51424 16.0579 8.12936 13.4428L7.18655 12.5C4.0484 15.6381 4.0371 20.7148 7.16129 23.839C10.2855 26.9632 15.3621 26.9518 18.5003 23.8137L17.5574 22.8709Z" fill="white"></path>
<path fill-rule="evenodd" clip-rule="evenodd" d="M22.6195 12.7806L23.5623 13.7234C26.003 11.2826 26.0118 7.3341 23.5819 4.90417C21.152 2.47424 17.2035 2.48303 14.7627 4.92381L15.7055 5.86662C17.6233 3.94887 20.7257 3.94196 22.6349 5.85119C24.5441 7.76042 24.5372 10.8628 22.6195 12.7806Z" fill="white"></path>
<path fill-rule="evenodd" clip-rule="evenodd" d="M9.70092 15.0144C7.95751 16.7578 7.95123 19.5782 9.68689 21.3138C11.4226 23.0495 14.2429 23.0432 15.9863 21.2998L15.0435 20.357C13.8231 21.5774 11.8489 21.5818 10.6339 20.3668C9.41894 19.1518 9.42334 17.1776 10.6437 15.9572L9.70092 15.0144Z" fill="white"></path>
</g>
<defs>
<filter id="filter0_dd_1_75" x="0.825523" y="3.0874" width="29.2508" height="31.0873" filterUnits="userSpaceOnUse" color-interpolation-filters="sRGB">
<feFlood flood-opacity="0" result="BackgroundImageFix"></feFlood>
<feColorMatrix in="SourceAlpha" type="matrix" values="0 0 0 0 0 0 0 0 0 0 0 0 0 0 0 0 0 0 127 0" result="hardAlpha"></feColorMatrix>
<feOffset dy="4"></feOffset>
<feGaussianBlur stdDeviation="2"></feGaussianBlur>
<feComposite in2="hardAlpha" operator="out"></feComposite>
<feColorMatrix type="matrix" values="0 0 0 0 0 0 0 0 0 0 0 0 0 0 0 0 0 0 0.25 0"></feColorMatrix>
<feBlend mode="normal" in2="BackgroundImageFix" result="effect1_dropShadow_1_75"></feBlend>
<feColorMatrix in="SourceAlpha" type="matrix" values="0 0 0 0 0 0 0 0 0 0 0 0 0 0 0 0 0 0 127 0" result="hardAlpha"></feColorMatrix>
<feOffset dy="4"></feOffset>
<feGaussianBlur stdDeviation="2"></feGaussianBlur>
<feComposite in2="hardAlpha" operator="out"></feComposite>
<feColorMatrix type="matrix" values="0 0 0 0 0 0 0 0 0 0 0 0 0 0 0 0 0 0 0.25 0"></feColorMatrix>
<feBlend mode="normal" in2="effect1_dropShadow_1_75" result="effect2_dropShadow_1_75"></feBlend>
<feBlend mode="normal" in="SourceGraphic" in2="effect2_dropShadow_1_75" result="shape"></feBlend>
</filter>
</defs>
</svg>
