<svg width="31" height="35" fill="none" xmlns="http://www.w3.org/2000/svg"><g filter="url('#filter0_dd_1_75')" fill-rule="evenodd" clip-rule="evenodd" fill="#fff"><path d="m7.187 12.5 7.576-7.576.943.943-7.577 7.576-.942-.943ZM9.7 15.014l7.577-7.576.943.943-7.576 7.576-.943-.943ZM15.043 20.357l7.576-7.576.943.942-7.576 7.576-.943-.942ZM17.557 22.87l7.577-7.575.942.942-7.576 7.577-.943-.943Z"/><path d="M17.557 22.87c-2.615 2.616-6.845 2.625-9.449.022-2.603-2.604-2.594-6.834.021-9.45l-.942-.942c-3.139 3.138-3.15 8.215-.026 11.339 3.125 3.124 8.201 3.113 11.34-.025l-.944-.943ZM22.62 12.78l.942.943c2.441-2.44 2.45-6.389.02-8.819-2.43-2.43-6.379-2.421-8.82.02l.944.943c1.917-1.918 5.02-1.925 6.929-.016 1.91 1.91 1.902 5.012-.016 6.93Z"/><path d="M9.7 15.014c-1.742 1.744-1.749 4.564-.013 6.3 1.736 1.735 4.556 1.73 6.3-.014l-.944-.943a3.118 3.118 0 0 1-4.41.01 3.118 3.118 0 0 1 .01-4.41l-.942-.943Z"/></g><defs><filter id="filter0_dd_1_75" x=".826" y="3.087" width="29.251" height="31.087" filterUnits="userSpaceOnUse" color-interpolation-filters="sRGB"><feFlood flood-opacity="0" result="BackgroundImageFix"/><feColorMatrix in="SourceAlpha" values="0 0 0 0 0 0 0 0 0 0 0 0 0 0 0 0 0 0 127 0" result="hardAlpha"/><feOffset dy="4"/><feGaussianBlur stdDeviation="2"/><feComposite in2="hardAlpha" operator="out"/><feColorMatrix values="0 0 0 0 0 0 0 0 0 0 0 0 0 0 0 0 0 0 0.25 0"/><feBlend in2="BackgroundImageFix" result="effect1_dropShadow_1_75"/><feColorMatrix in="SourceAlpha" values="0 0 0 0 0 0 0 0 0 0 0 0 0 0 0 0 0 0 127 0" result="hardAlpha"/><feOffset dy="4"/><feGaussianBlur stdDeviation="2"/><feComposite in2="hardAlpha" operator="out"/><feColorMatrix values="0 0 0 0 0 0 0 0 0 0 0 0 0 0 0 0 0 0 0.25 0"/><feBlend in2="effect1_dropShadow_1_75" result="effect2_dropShadow_1_75"/><feBlend in="SourceGraphic" in2="effect2_dropShadow_1_75" result="shape"/></filter></defs></svg>